<svg width="24" height="24" viewBox="0 0 24 24" fill="none" xmlns="http://www.w3.org/2000/svg">
<path fill-rule="evenodd" clip-rule="evenodd" d="M7 2.75C4.65279 2.75 2.75 4.65279 2.75 7C2.75 8.57216 3.60326 9.94591 4.87554 10.6819L5.25 10.8985V17.8431C5.25 18.7218 5.26328 18.9523 5.34515 19.1499C5.42703 19.3476 5.58057 19.5199 6.2019 20.1412L7 20.9393L8.57786 19.3615C8.62906 19.3103 8.65763 19.2816 8.67882 19.2593C8.69688 19.2403 8.70007 19.2357 8.69873 19.2375C8.72512 19.2029 8.74203 19.162 8.74779 19.1189C8.748 19.1169 8.74866 19.1088 8.74915 19.0895C8.74994 19.0588 8.75 19.0183 8.75 18.9459C8.75 18.8872 8.74996 18.8547 8.74943 18.8299C8.74897 18.8083 8.74853 18.8062 8.74853 18.8062C8.74466 18.7708 8.73326 18.7366 8.71509 18.7059C8.71509 18.7059 8.71418 18.704 8.7016 18.6864C8.68716 18.6663 8.66766 18.6402 8.63246 18.5933L7.4 16.95C7.2 16.6833 7.2 16.3167 7.4 16.05L8.1 15.1167C8.52554 14.5493 8.63058 14.3944 8.68585 14.2286C8.74113 14.0628 8.75 13.8759 8.75 13.1667V10.8985L9.12446 10.6819C10.3967 9.94591 11.25 8.57216 11.25 7C11.25 4.65279 9.34721 2.75 7 2.75ZM1.25 7C1.25 3.82436 3.82436 1.25 7 1.25C10.1756 1.25 12.75 3.82436 12.75 7C12.75 8.97049 11.7585 10.7086 10.25 11.744V13.1667C10.25 13.1994 10.25 13.2318 10.2501 13.2638C10.2505 13.8297 10.2508 14.2771 10.1089 14.703C9.96691 15.1289 9.69822 15.4865 9.35833 15.939C9.33911 15.9646 9.31966 15.9904 9.3 16.0167L8.9375 16.5L9.83246 17.6933C9.83679 17.6991 9.84116 17.7049 9.84555 17.7107C9.89912 17.782 9.95634 17.8582 10.0056 17.9413C10.1328 18.1561 10.2126 18.3955 10.2397 18.6436C10.2502 18.7396 10.2501 18.8349 10.25 18.9241C10.25 18.9314 10.25 18.9387 10.25 18.9459C10.25 18.9549 10.25 18.9639 10.25 18.973C10.2501 19.0829 10.2502 19.2002 10.2346 19.3172C10.1943 19.6197 10.0755 19.9063 9.8902 20.1487C9.8185 20.2425 9.73549 20.3254 9.65768 20.403C9.65125 20.4094 9.64487 20.4158 9.63852 20.4221L7.53033 22.5303C7.23744 22.8232 6.76256 22.8232 6.46967 22.5303L5.14124 21.2019C5.11241 21.1731 5.0839 21.1446 5.05573 21.1165C4.56127 20.623 4.16994 20.2324 3.95933 19.724C3.74872 19.2155 3.74925 18.6626 3.74992 17.964C3.74996 17.9242 3.75 17.8839 3.75 17.8431V11.744C2.24152 10.7086 1.25 8.97049 1.25 7ZM20.0433 5.76729C19.7958 5.75041 19.4762 5.75 19 5.75H15C14.5858 5.75 14.25 5.41421 14.25 5C14.25 4.58579 14.5858 4.25 15 4.25L19.0253 4.25C19.4697 4.24999 19.8408 4.24999 20.1454 4.27077C20.4625 4.29241 20.762 4.33905 21.0524 4.45933C21.7262 4.73844 22.2616 5.27379 22.5407 5.94762C22.661 6.23801 22.7076 6.53754 22.7292 6.85464C22.75 7.15925 22.75 7.53028 22.75 7.97474V8.02526C22.75 8.46972 22.75 8.84075 22.7292 9.14536C22.7076 9.46246 22.661 9.76199 22.5407 10.0524C22.2616 10.7262 21.7262 11.2616 21.0524 11.5407C20.762 11.661 20.4625 11.7076 20.1454 11.7292C19.8408 11.75 19.4697 11.75 19.0253 11.75H15C14.5858 11.75 14.25 11.4142 14.25 11C14.25 10.5858 14.5858 10.25 15 10.25H19C19.4762 10.25 19.7958 10.2496 20.0433 10.2327C20.284 10.2163 20.4012 10.1868 20.4784 10.1549C20.7846 10.028 21.028 9.78464 21.1549 9.47836C21.1868 9.4012 21.2163 9.28399 21.2327 9.04326C21.2496 8.79579 21.25 8.4762 21.25 8C21.25 7.5238 21.2496 7.20421 21.2327 6.95674C21.2163 6.71601 21.1868 6.5988 21.1549 6.52165C21.028 6.21536 20.7846 5.97202 20.4784 5.84515C20.4012 5.81319 20.284 5.78372 20.0433 5.76729ZM6.25 7C6.25 6.58579 6.58579 6.25 7 6.25H7.00898C7.4232 6.25 7.75898 6.58579 7.75898 7C7.75898 7.41421 7.4232 7.75 7.00898 7.75H7C6.58579 7.75 6.25 7.41421 6.25 7ZM12.25 14C12.25 13.5858 12.5858 13.25 13 13.25H19.0253C19.4697 13.25 19.8408 13.25 20.1454 13.2708C20.4625 13.2924 20.762 13.339 21.0524 13.4593C21.7262 13.7384 22.2616 14.2738 22.5407 14.9476C22.661 15.238 22.7076 15.5375 22.7292 15.8546C22.75 16.1592 22.75 16.5303 22.75 16.9747V17.0253C22.75 17.4697 22.75 17.8408 22.7292 18.1454C22.7076 18.4625 22.661 18.762 22.5407 19.0524C22.2616 19.7262 21.7262 20.2616 21.0524 20.5407C20.762 20.661 20.4625 20.7076 20.1454 20.7292C19.8408 20.75 19.4697 20.75 19.0253 20.75H13C12.5858 20.75 12.25 20.4142 12.25 20C12.25 19.5858 12.5858 19.25 13 19.25H19C19.4762 19.25 19.7958 19.2496 20.0433 19.2327C20.284 19.2163 20.4012 19.1868 20.4784 19.1549C20.7846 19.028 21.028 18.7846 21.1549 18.4784C21.1868 18.4012 21.2163 18.284 21.2327 18.0433C21.2496 17.7958 21.25 17.4762 21.25 17C21.25 16.5238 21.2496 16.2042 21.2327 15.9567C21.2163 15.716 21.1868 15.5988 21.1549 15.5216C21.028 15.2154 20.7846 14.972 20.4784 14.8451C20.4012 14.8132 20.284 14.7837 20.0433 14.7673C19.7958 14.7504 19.4762 14.75 19 14.75H13C12.5858 14.75 12.25 14.4142 12.25 14Z" fill="#949494"/>
</svg>
