<svg width="16" height="10" viewBox="0 0 16 10" fill="none" xmlns="http://www.w3.org/2000/svg">
<path fill-rule="evenodd" clip-rule="evenodd" d="M5.87032 1.33656C6.14822 1.13186 6.20761 0.74062 6.00292 0.462695C5.79823 0.184758 5.40698 0.125382 5.12905 0.330075L5.49967 0.833324C5.12905 0.330075 5.12905 0.330075 5.12905 0.330075L5.12795 0.330883L5.12534 0.332805L5.11571 0.339932L5.0794 0.366915C5.04788 0.390406 5.00205 0.42471 4.94395 0.468594C4.82778 0.556338 4.66238 0.682513 4.46412 0.837234C4.06826 1.14616 3.53834 1.57127 3.00658 2.03295C2.47794 2.49194 1.93319 2.99936 1.51568 3.47187C1.30756 3.70741 1.11785 3.94899 0.976782 4.183C0.846055 4.39985 0.708005 4.68865 0.708008 4.99996C0.70801 5.31127 0.846058 5.60007 0.976785 5.81692C1.11785 6.05092 1.30756 6.29251 1.51568 6.52805C1.93318 7.00057 2.47793 7.50799 3.00657 7.96699C3.53831 8.42868 4.06823 8.8538 4.46408 9.16273C4.66234 9.31745 4.82774 9.44363 4.94391 9.53138C5.00201 9.57526 5.04784 9.60957 5.07936 9.63306L5.11567 9.66004L5.1253 9.66717L5.12791 9.66909L5.12865 9.66964C5.12865 9.66964 5.12901 9.6699 5.49964 9.16666L5.12865 9.66964C5.40658 9.87433 5.79819 9.81523 6.00288 9.53729C6.20758 9.25936 6.14821 8.86811 5.87028 8.66341L5.86794 8.66169L5.85971 8.6556L5.82633 8.63079C5.79682 8.6088 5.75313 8.5761 5.6973 8.53393C5.58561 8.44957 5.42549 8.32742 5.23313 8.1773C4.84774 7.87654 4.336 7.46586 3.82609 7.02312C3.31307 6.57769 2.81616 6.11207 2.45241 5.70039C2.42976 5.67475 2.40783 5.64954 2.38661 5.62479L14.6666 5.62479C15.0117 5.62479 15.2916 5.34496 15.2916 4.99979C15.2916 4.65461 15.0117 4.37479 14.6666 4.37479L2.38691 4.37479C2.40803 4.35014 2.42986 4.32506 2.45241 4.29954C2.81615 3.88787 3.31307 3.42225 3.82609 2.97683C4.33601 2.53411 4.84776 2.12343 5.23315 1.82267C5.42551 1.67255 5.58563 1.55041 5.69733 1.46605C5.75316 1.42388 5.79684 1.39119 5.82636 1.36919L5.85973 1.34439L5.86796 1.3383L5.87032 1.33656Z" fill="#F24D0D"/>
</svg>
