<svg width="37" height="36" viewBox="0 0 37 36" fill="none" xmlns="http://www.w3.org/2000/svg">
<path d="M10.0263 4.43008C11.7235 4.27359 13.8258 4.25306 16.5167 4.25038L17.5715 1.74998L10.0263 4.43008Z" fill="#F24D0D"/>
<path fill-rule="evenodd" clip-rule="evenodd" d="M17.6687 1.74998L17.5715 1.74998C13.9204 1.74996 11.0526 1.74994 8.81354 2.05097C6.51911 2.35945 4.69868 3.00451 3.26834 4.43483C1.83802 5.86517 1.19296 7.68559 0.884485 9.98002C0.583456 12.2191 0.583474 15.0868 0.583496 18.738V18.9286C0.583474 22.5797 0.583456 25.4475 0.884485 27.6866C1.19296 29.981 1.83805 31.8015 3.26836 33.2319C4.6987 34.6622 6.51912 35.3072 8.81355 35.6157C11.0526 35.9167 13.9204 35.9167 17.5715 35.9166H17.7621C21.4133 35.9167 24.2811 35.9167 26.5201 35.6157C28.8145 35.3072 30.635 34.6621 32.0654 33.2318C33.4408 31.8563 34.0905 30.1195 34.4126 27.9458C34.7292 25.8086 34.7484 23.0953 34.75 19.6672C34.7503 18.9769 34.1909 18.417 33.5006 18.4166C32.8102 18.4163 32.2503 18.9757 32.25 19.6661C32.2484 23.1497 32.2237 25.6616 31.9396 27.5794C31.6608 29.4607 31.1529 30.6087 30.2976 31.4641C29.4092 32.3525 28.2042 32.8668 26.187 33.138C24.1338 33.414 21.4341 33.4166 17.6668 33.4166C13.8995 33.4166 11.1998 33.414 9.14665 33.138C7.12947 32.8668 5.92454 32.3525 5.03613 31.4641C4.14773 30.5757 3.6334 29.3707 3.36219 27.3535C3.08615 25.3003 3.0835 22.6006 3.0835 18.8333C3.0835 15.066 3.08615 12.3663 3.36219 10.3131C3.6334 8.29594 4.14771 7.09101 5.03612 6.20259C5.92453 5.31419 7.12946 4.79988 9.14666 4.52867C9.42741 4.49093 9.72026 4.45829 10.0263 4.43008L17.5715 1.74998L16.5167 4.25038C16.8887 4.25001 17.2719 4.24998 17.6668 4.24998C18.552 4.24998 19.3808 4.24998 20.1607 4.25381C20.851 4.25721 21.4134 3.70032 21.4168 3.00997C21.4202 2.31962 20.8633 1.75724 20.173 1.75384C19.3864 1.74998 18.5518 1.74998 17.6687 1.74998Z" fill="#F24D0D"/>
<path fill-rule="evenodd" clip-rule="evenodd" d="M16.3637 26.2199C13.1604 23.7926 9.12573 22.4998 4.97945 22.5875L4.94982 22.5878C3.96615 22.5853 2.98423 22.655 2.01315 22.796L1.65384 20.322C2.74129 20.164 3.84046 20.0857 4.9414 20.0878C9.62976 19.9919 14.2126 21.4533 17.8736 24.2274C21.2739 26.8038 23.6783 30.3621 24.7104 34.3537L22.29 34.9795C21.4043 31.5542 19.333 28.4698 16.3637 26.2199Z" fill="#F24D0D"/>
<path fill-rule="evenodd" clip-rule="evenodd" d="M27.479 23.4168C24.069 23.4041 20.7494 24.6612 17.7315 27.0142L19.2688 28.9857C21.9217 26.9172 24.711 25.9059 27.4722 25.9168L27.4785 25.9168C29.3038 25.9149 31.1373 26.3648 32.9354 27.2755L34.0649 25.0452C31.946 23.972 29.7279 23.4149 27.479 23.4168Z" fill="#F24D0D"/>
<path fill-rule="evenodd" clip-rule="evenodd" d="M28.649 5.26549C28.3287 5.67338 27.9916 6.10188 27.7299 6.37119C27.2487 6.86624 26.4573 6.87751 25.9623 6.39636C25.4672 5.9152 25.456 5.12383 25.9371 4.62877C26.085 4.47666 26.3277 4.17362 26.683 3.72125C26.7087 3.68853 26.7348 3.65527 26.7613 3.62152C27.0781 3.21791 27.4498 2.74441 27.8327 2.29248C28.2431 1.80822 28.7024 1.30524 29.1615 0.914205C29.3916 0.718248 29.6509 0.524968 29.9299 0.375672C30.1989 0.231685 30.5697 0.083313 31.0002 0.083313C31.4306 0.083313 31.8014 0.231685 32.0705 0.375672C32.3494 0.524968 32.6088 0.718248 32.8388 0.914205C33.298 1.30524 33.7573 1.80822 34.1676 2.29248C34.5505 2.74441 34.9222 3.2179 35.239 3.62151C35.2655 3.65526 35.2916 3.68852 35.3173 3.72125C35.6727 4.17362 35.9154 4.47666 36.0632 4.62877C36.5444 5.12383 36.5331 5.9152 36.038 6.39636C35.543 6.87751 34.7516 6.86624 34.2705 6.37119C34.0087 6.10188 33.6717 5.67338 33.3513 5.26549C33.3266 5.23409 33.3018 5.20249 33.2769 5.17072C32.9553 4.76114 32.6115 4.32313 32.2603 3.90868C32.2569 3.9047 32.2535 3.90073 32.2502 3.89676V14.6666C32.2502 15.357 31.6905 15.9166 31.0002 15.9166C30.3098 15.9166 29.7502 15.357 29.7502 14.6666V3.89676C29.7468 3.90073 29.7434 3.9047 29.7401 3.90868C29.3889 4.32314 29.045 4.76116 28.7234 5.17075C28.6985 5.20251 28.6737 5.2341 28.649 5.26549Z" fill="#F24D0D"/>
</svg>
