<svg width="91" height="69" viewBox="0 0 91 69" fill="none" xmlns="http://www.w3.org/2000/svg">
<path d="M53.364 67.4631C54.9307 69.039 57.483 69.039 59.0498 67.4632L89.198 37.1407C90.7488 35.5809 90.7488 33.0641 89.198 31.5044L59.0498 1.18185C57.483 -0.393956 54.9307 -0.393949 53.364 1.18187L44.6896 9.90642C52.7571 15.053 58.1049 24.0653 58.1049 34.3229C58.1049 44.5803 52.7574 53.5924 44.69 58.739L53.364 67.4631Z" fill="#5EC5FD"/>
<path fill-rule="evenodd" clip-rule="evenodd" d="M44.6896 9.87187L23.2181 31.4677C21.6669 33.0279 21.6669 35.548 23.2181 37.1082L44.69 58.7045C40.1757 61.5846 34.8097 63.2542 29.0525 63.2542C13.0073 63.2542 -1.4026e-06 50.2857 0 34.2884C1.4026e-06 18.2909 13.0073 5.32251 29.0525 5.32251C34.8095 5.32251 40.1753 6.99201 44.6896 9.87187Z" fill="#F24D0D"/>
</svg>
