<svg width="18" height="18" viewBox="0 0 18 18" fill="none" xmlns="http://www.w3.org/2000/svg">
<path fill-rule="evenodd" clip-rule="evenodd" d="M1.5 4.20834C1.84518 4.20834 2.125 4.48816 2.125 4.83334V13.3011C2.125 13.5195 2.25457 13.817 3.03761 14.2869C3.80106 14.7451 4.96663 15.2391 6.60732 15.9322C7.4567 16.291 7.97593 16.5053 8.375 16.6151V8.46234C8.375 8.11716 8.65482 7.83734 9 7.83734C9.34518 7.83734 9.625 8.11716 9.625 8.46234V16.6151C10.0241 16.5053 10.5433 16.2909 11.3927 15.9322C13.0334 15.2391 14.199 14.7451 14.9624 14.2869C15.7454 13.8171 15.875 13.5195 15.875 13.3011V4.83334C15.875 4.48816 16.1548 4.20834 16.5 4.20834C16.8452 4.20834 17.125 4.48816 17.125 4.83334V13.3011C17.125 14.2348 16.4439 14.8557 15.6056 15.3588C14.7569 15.868 13.5084 16.3954 11.9308 17.0618L11.8791 17.0837C11.837 17.1014 11.7954 17.119 11.7543 17.1364C10.5721 17.6361 9.80991 17.9583 9 17.9583C8.19008 17.9583 7.42787 17.6361 6.24566 17.1364C6.20459 17.119 6.16302 17.1015 6.12092 17.0837L6.06912 17.0618C4.49154 16.3954 3.24309 15.868 2.39444 15.3588C1.55612 14.8557 0.875 14.2348 0.875 13.3011V4.83334C0.875 4.48816 1.15482 4.20834 1.5 4.20834Z" fill="#F24D0D"/>
<path fill-rule="evenodd" clip-rule="evenodd" d="M9 1.29167C8.36868 1.29167 7.767 1.5666 6.21051 2.31978L3.77617 3.49773C3.77617 3.49773 3.77617 3.49772 3.77617 3.49773C3.08925 3.83012 2.63836 4.05007 2.35082 4.2443C2.22716 4.32782 2.16741 4.38442 2.13976 4.41667C2.16741 4.44892 2.22716 4.50552 2.35082 4.58905C2.63836 4.78328 3.08925 5.00322 3.77617 5.33562L6.2105 6.51356C7.76699 7.26675 8.36868 7.54167 9 7.54167C9.63132 7.54167 10.233 7.26675 11.7895 6.51356L14.2238 5.33562C14.9107 5.00322 15.3616 4.78328 15.6492 4.58905C15.7728 4.50552 15.8326 4.44892 15.8602 4.41667C15.8326 4.38442 15.7728 4.32782 15.6492 4.2443C15.3616 4.05007 14.9107 3.83012 14.2239 3.49773C14.2238 3.49772 14.2239 3.49773 14.2239 3.49773L11.7895 2.31978C10.233 1.56659 9.63132 1.29167 9 1.29167ZM15.8821 4.44951C15.8815 4.44946 15.8796 4.44626 15.8778 4.44004C15.8818 4.44644 15.8827 4.44955 15.8821 4.44951ZM15.8778 4.3933C15.8796 4.38708 15.8815 4.38388 15.8821 4.38384C15.8827 4.38379 15.8818 4.3869 15.8778 4.3933ZM2.1179 4.38384C2.11846 4.38389 2.12043 4.38709 2.12215 4.39331C2.11821 4.38691 2.11735 4.3838 2.1179 4.38384ZM2.12215 4.44004C2.12043 4.44626 2.11846 4.44946 2.1179 4.4495C2.11735 4.44955 2.11821 4.44644 2.12215 4.44004ZM5.80418 1.12771C7.1724 0.465132 8.04685 0.0416718 9 0.0416718C9.95317 0.0416718 10.8276 0.465136 12.1959 1.12774C12.2414 1.14976 12.2874 1.17205 12.334 1.19459C12.334 1.19459 12.334 1.19459 12.334 1.19459L14.8136 2.39444C15.443 2.69896 15.9773 2.95749 16.3488 3.20846C16.7209 3.45975 17.125 3.83162 17.125 4.41667C17.125 5.00172 16.7209 5.37359 16.3488 5.62489C15.9773 5.87586 15.443 6.13439 14.8136 6.4389L12.334 7.63875C12.334 7.63875 12.334 7.63875 12.334 7.63875C12.2874 7.66129 12.2414 7.68358 12.1959 7.7056C10.8276 8.36821 9.95317 8.79167 9 8.79167C8.04682 8.79167 7.17236 8.3682 5.80408 7.70558C5.75862 7.68357 5.71261 7.66129 5.66603 7.63875C5.66603 7.63875 5.66604 7.63875 5.66603 7.63875L3.2317 6.46081L3.18657 6.43897C2.55712 6.13443 2.02273 5.87587 1.65115 5.62489C1.2791 5.37358 0.875 5.00171 0.875 4.41667C0.875 3.83163 1.2791 3.45976 1.65115 3.20846C2.02273 2.95747 2.55711 2.69892 3.18656 2.39437C3.20155 2.38712 3.2166 2.37984 3.2317 2.37253L5.66603 1.19459C5.66603 1.19459 5.66603 1.1946 5.66603 1.19459C5.71264 1.17204 5.75869 1.14974 5.80418 1.12771Z" fill="#F24D0D"/>
<path fill-rule="evenodd" clip-rule="evenodd" d="M3.44098 8.7205C3.59535 8.41176 3.97077 8.28662 4.27951 8.44099L5.94618 9.27432C6.25491 9.42869 6.38005 9.80411 6.22568 10.1128C6.07132 10.4216 5.69589 10.5467 5.38716 10.3924L3.72049 9.55902C3.41175 9.40465 3.28661 9.02923 3.44098 8.7205Z" fill="#F24D0D"/>
<path fill-rule="evenodd" clip-rule="evenodd" d="M13.7257 2.05383C13.8801 2.36257 13.7549 2.73799 13.4462 2.89236L5.11284 7.05902C4.8041 7.21339 4.42868 7.08825 4.27432 6.77951C4.11995 6.47078 4.24509 6.09536 4.55382 5.94099L12.8872 1.77432C13.1959 1.61995 13.5713 1.74509 13.7257 2.05383Z" fill="#F24D0D"/>
</svg>
