<svg width="16" height="16" viewBox="0 0 16 16" fill="none" xmlns="http://www.w3.org/2000/svg">
<path fill-rule="evenodd" clip-rule="evenodd" d="M8.00016 0.708328C8.34534 0.708328 8.62516 0.98815 8.62516 1.33333V7.375H14.6668C15.012 7.375 15.2918 7.65482 15.2918 8C15.2918 8.34517 15.012 8.625 14.6668 8.625H8.62516V14.6667C8.62516 15.0118 8.34534 15.2917 8.00016 15.2917C7.65498 15.2917 7.37516 15.0118 7.37516 14.6667V8.625H1.3335C0.988318 8.625 0.708496 8.34517 0.708496 8C0.708496 7.65482 0.988318 7.375 1.3335 7.375H7.37516V1.33333C7.37516 0.98815 7.65498 0.708328 8.00016 0.708328Z" fill="white"/>
</svg>
