<svg width="18" height="12" viewBox="0 0 18 12" fill="none" xmlns="http://www.w3.org/2000/svg">
<path d="M12.0059 0.250023C11.8874 0.249096 11.7705 0.276221 11.6646 0.329179C11.5587 0.382137 11.4668 0.459423 11.3965 0.55471C11.338 0.633964 11.2957 0.723961 11.272 0.819563C11.2483 0.915164 11.2437 1.0145 11.2584 1.11189C11.273 1.20928 11.3068 1.30283 11.3576 1.38719C11.4085 1.47155 11.4754 1.54506 11.5547 1.60354C11.5547 1.60354 12.7862 2.51162 14.0078 3.57229C14.6186 4.10262 15.2258 4.67296 15.6562 5.16018C15.683 5.19043 15.7058 5.21984 15.7305 5.25002H1C0.801088 5.25002 0.610322 5.32904 0.46967 5.46969C0.329018 5.61035 0.25 5.80111 0.25 6.00002C0.25 6.19893 0.329018 6.3897 0.46967 6.53035C0.610322 6.671 0.801088 6.75002 1 6.75002H15.7305C15.7058 6.7802 15.683 6.80961 15.6562 6.83987C15.2258 7.32709 14.6186 7.89742 14.0078 8.42776C12.7862 9.48843 11.5547 10.3965 11.5547 10.3965C11.4754 10.455 11.4085 10.5285 11.3576 10.6129C11.3068 10.6972 11.273 10.7908 11.2584 10.8882C11.2437 10.9855 11.2483 11.0849 11.272 11.1805C11.2957 11.2761 11.338 11.3661 11.3965 11.4453C11.455 11.5246 11.5285 11.5916 11.6128 11.6424C11.6972 11.6932 11.7907 11.727 11.8881 11.7417C11.9855 11.7564 12.0849 11.7517 12.1805 11.728C12.2761 11.7043 12.3661 11.662 12.4453 11.6035C12.4453 11.6035 13.7139 10.6705 14.9922 9.56057C15.6314 9.00561 16.2743 8.40781 16.7812 7.83401C17.2882 7.26021 17.75 6.80376 17.75 6.00002C17.7501 5.19624 17.2882 4.73984 16.7812 4.16604C16.2743 3.59223 15.6314 2.99444 14.9922 2.43948C13.7138 1.32955 12.4453 0.396507 12.4453 0.396507C12.318 0.302532 12.1641 0.251258 12.0059 0.250023Z" fill="white"/>
</svg>
