<svg width="22" height="22" viewBox="0 0 22 22" fill="none" xmlns="http://www.w3.org/2000/svg">
<path fill-rule="evenodd" clip-rule="evenodd" d="M16.5002 6.25002C16.086 6.25002 15.7502 5.91423 15.7502 5.50002C15.7502 5.08581 16.086 4.75002 16.5002 4.75002C16.9144 4.75002 17.2502 5.08581 17.2502 5.50002C17.2502 5.91423 16.9144 6.25002 16.5002 6.25002ZM14.2502 5.50002C14.2502 6.74266 15.2576 7.75002 16.5002 7.75002C17.7428 7.75002 18.7502 6.74266 18.7502 5.50002C18.7502 4.25738 17.7428 3.25002 16.5002 3.25002C15.2576 3.25002 14.2502 4.25738 14.2502 5.50002Z" fill="#949494"/>
<path d="M15.9318 0.271506C14.18 0.198831 12.4148 0.327913 11.4982 0.412131C10.9323 0.464134 10.4043 0.696216 9.98259 1.05862C6.83106 3.7673 3.96002 6.57884 1.21501 9.64455C-0.0346282 11.0403 -0.0584193 13.1379 1.07634 14.6035C2.9399 17.0104 4.98978 19.0584 7.39665 20.9219C8.86226 22.0567 10.9599 22.0348 12.3556 20.7852C15.4214 18.0402 18.2328 15.1693 20.9416 12.0176C21.3041 11.5959 21.5361 11.0678 21.5881 10.502C21.6723 9.58542 21.8013 7.82016 21.7287 6.06838C21.6924 5.19249 21.6072 4.32167 21.4279 3.54104C21.2486 2.76041 20.9955 2.05395 20.4709 1.52932C19.9462 1.0047 19.2398 0.751579 18.4592 0.572287C17.6785 0.392996 16.8077 0.307843 15.9318 0.271506ZM15.8693 1.76955C16.6868 1.80347 17.4826 1.88609 18.1232 2.03322C18.7638 2.18036 19.2325 2.41202 19.4103 2.58987C19.5882 2.7677 19.8198 3.23636 19.967 3.87697C20.1141 4.51759 20.1967 5.31338 20.2306 6.13088C20.2984 7.76589 20.1747 9.4862 20.0939 10.3653C20.0713 10.6116 19.972 10.8424 19.8029 11.0391C17.1348 14.1434 14.3735 16.9658 11.3556 19.668C10.5105 20.4246 9.22911 20.4429 8.31658 19.7363C6.00427 17.9461 4.05418 15.9959 2.26384 13.6836C1.55728 12.771 1.57554 11.4897 2.3322 10.6446C5.03435 7.6267 7.85689 4.8653 10.9611 2.19729C11.158 2.02813 11.3886 1.92891 11.6349 1.90627C12.514 1.8255 14.2343 1.70172 15.8693 1.76955Z" fill="#949494"/>
<path fill-rule="evenodd" clip-rule="evenodd" d="M13.5311 8.45602C13.824 8.74891 13.824 9.22382 13.5311 9.51672L13.2998 9.74802C13.6211 10.3755 13.5685 11.0194 13.5444 11.3136C13.5414 11.3501 13.5388 11.3813 13.5375 11.4064C13.5155 11.82 13.1623 12.1375 12.7487 12.1154C12.3351 12.0934 12.0176 11.7403 12.0396 11.3266C12.0414 11.294 12.0432 11.2621 12.0449 11.231C12.0703 10.7798 12.0869 10.4842 11.8066 10.2279C11.7049 10.1349 11.5393 10.0262 11.2657 9.92982C10.9812 9.82952 10.5962 9.93992 10.3551 10.2276C10.2446 10.3594 10.1905 10.5013 10.186 10.6347C10.1819 10.7601 10.2191 10.9347 10.3912 11.1486C10.5159 11.3036 10.6339 11.4332 10.7552 11.5664C10.7604 11.5722 10.7656 11.5779 10.7708 11.5836C10.8906 11.7152 11.0299 11.8681 11.1493 12.0335C11.4242 12.414 11.5834 12.844 11.5527 13.4393C11.526 13.9579 11.2669 14.4169 10.941 14.7603C10.6094 15.1095 10.1657 15.3878 9.66747 15.5409C8.9939 15.748 8.30737 15.6224 7.7442 15.3036L7.53831 15.5095C7.24542 15.8023 6.77055 15.8023 6.47765 15.5095C6.18476 15.2166 6.18476 14.7417 6.47765 14.4488L6.68708 14.2394C6.35 13.6381 6.35364 13.0983 6.35523 12.8613C6.35541 12.8349 6.35556 12.8123 6.35522 12.7937C6.3475 12.3796 6.67697 12.0376 7.09111 12.0299C7.50525 12.0222 7.84724 12.3516 7.85496 12.7658C7.85576 12.8087 7.8558 12.8472 7.85585 12.883C7.85599 13.0015 7.85609 13.0904 7.8835 13.2156C7.91435 13.3565 7.98441 13.5397 8.1706 13.7477C8.47117 14.0836 8.90255 14.2068 9.22667 14.1071C9.48277 14.0284 9.70237 13.8863 9.85307 13.7276C10.0093 13.563 10.0514 13.4263 10.0547 13.3623C10.0667 13.1293 10.0209 13.033 9.93337 12.9119C9.87167 12.8265 9.79037 12.7349 9.66157 12.5933C9.65467 12.5858 9.64777 12.5782 9.64067 12.5704C9.52237 12.4406 9.37677 12.2806 9.22257 12.089C8.84873 11.6245 8.66946 11.1049 8.68685 10.5846C8.70397 10.0723 8.90959 9.61692 9.20557 9.26392C9.77727 8.58188 10.7923 8.17253 11.7644 8.51513C11.9267 8.57234 12.0777 8.63693 12.2177 8.70881L12.4705 8.45602C12.7634 8.16312 13.2382 8.16312 13.5311 8.45602Z" fill="#949494"/>
</svg>
