<svg width="18" height="18" viewBox="0 0 18 18" fill="none" xmlns="http://www.w3.org/2000/svg">
<path fill-rule="evenodd" clip-rule="evenodd" d="M0.25 8.85C0.25 4.10035 4.10035 0.25 8.85 0.25C13.5996 0.25 17.45 4.10035 17.45 8.85C17.45 13.5996 13.5996 17.45 8.85 17.45C4.10035 17.45 0.25 13.5996 0.25 8.85ZM3.21027 4.0588C2.11243 5.3498 1.45 7.02254 1.45 8.85C1.45 12.9369 4.76309 16.25 8.85 16.25C10.6774 16.25 12.3502 15.5876 13.6412 14.4897L3.21027 4.0588ZM4.0588 3.21027L14.4897 13.6412C15.5876 12.3502 16.25 10.6774 16.25 8.85C16.25 4.76309 12.9369 1.45 8.85 1.45C7.02254 1.45 5.3498 2.11243 4.0588 3.21027Z" fill="#F24D0D"/>
</svg>
